<mxfile host="app.diagrams.net" modified="2024-05-30T06:18:39.677Z" agent="Mozilla/5.0 (Windows NT 10.0; Win64; x64) AppleWebKit/537.36 (KHTML, like Gecko) Chrome/125.0.0.0 Safari/537.36" version="22.1.18" etag="FTNTQXnyLK7THsGfLWTS" type="github">
  <diagram name="페이지-1" id="G5QhlLTKKxViDprx3A4a">
    <mxGraphModel>
      <root>
        <mxCell id="0" />
        <mxCell id="1" parent="0" />
      </root>
    </mxGraphModel>
  </diagram>
</mxfile>
